# xmcd CD database file
#
# Track frame offsets:
#	150
#	19138
#	35478
#	50290
#	63858
#	80543
#	98958
#	121358
#	140138
#	148475
#	165438
#	188735
#
# Disc length: 2723 seconds
#
# Revision: 5
# Processed by: cddbd v1.5.2PL0 Copyright (c) Steve Scherf et al.
# Submitted via: CDex 1.51
#
DISCID=a80aa10c
DTITLE=Marisa Monte - Marisa Monte
DYEAR=1988
DGENRE=MPB
TTITLE0=Comida
TTITLE1=Bem Que Se Quis [E Po' Che Fa']
TTITLE2=Chocolate
TTITLE3=Ando Meio Desligado
TTITLE4=Preciso Me Encontrar
TTITLE5=Xote Das Meninas [música incidental Severina Xique Xique]
TTITLE6=Negro Gato [com Paulo Moura]
TTITLE7=Lenda Das Sereias, Rainha Do Mar
TTITLE8=South American Way
TTITLE9=(I Heard It Through The) Grapevine
TTITLE10=Bess You Is My Woman Now [de "Porgy and Bess" com Nouvelle Cuisine]
TTITLE11=Speak Low
EXTD=YEAR: 1988
EXTT0=
EXTT1=
EXTT2=
EXTT3=
EXTT4=
EXTT5=
EXTT6=
EXTT7=
EXTT8=
EXTT9=
EXTT10=
EXTT11=
PLAYORDER=
